<?xml version="1.0" encoding="UTF-8" standalone="no"?>
<!-- Created with Inkscape (http://www.inkscape.org/) -->

<svg
   width="58.862274mm"
   height="58.866558mm"
   viewBox="0 0 58.862274 58.866558"
   version="1.1"
   id="svg1"
   inkscape:version="1.4.3 (0d15f75042, 2025-12-25)"
   sodipodi:docname="logo.svg"
   xmlns:inkscape="http://www.inkscape.org/namespaces/inkscape"
   xmlns:sodipodi="http://sodipodi.sourceforge.net/DTD/sodipodi-0.dtd"
   xmlns="http://www.w3.org/2000/svg"
   xmlns:svg="http://www.w3.org/2000/svg">
  <sodipodi:namedview
     id="namedview1"
     pagecolor="#ffffff"
     bordercolor="#000000"
     borderopacity="0.25"
     inkscape:showpageshadow="2"
     inkscape:pageopacity="0.0"
     inkscape:pagecheckerboard="0"
     inkscape:deskcolor="#d1d1d1"
     inkscape:document-units="mm"
     inkscape:zoom="3.1672789"
     inkscape:cx="123.13409"
     inkscape:cy="131.81662"
     inkscape:window-width="2560"
     inkscape:window-height="1532"
     inkscape:window-x="0"
     inkscape:window-y="0"
     inkscape:window-maximized="1"
     inkscape:current-layer="layer1" />
  <defs
     id="defs1" />
  <g
     inkscape:label="Calque 1"
     inkscape:groupmode="layer"
     id="layer1"
     transform="translate(-117.475,-56.356249)">
    <path
       style="fill:#1465ff;fill-opacity:1;stroke:none;stroke-width:6.16199;stroke-linejoin:round;stroke-miterlimit:3.3;stroke-dashoffset:0.32"
       d="m 146.32231,56.361279 c -9.31153,0.08654 -18.37603,4.968909 -23.61171,12.66367 -6.055,8.459264 -6.90343,20.211875 -2.30846,29.519409 3.59732,7.646612 10.69373,13.445132 18.84004,15.625612 4.62365,1.3708 9.57864,1.33211 14.2628,0.29365 11.08343,-2.38291 20.25984,-11.79379 22.30624,-22.952472 0.92099,-5.14749 0.68055,-10.550321 -1.10224,-15.494645 -3.41996,-10.062361 -12.75353,-17.782881 -23.26731,-19.306942 -1.69213,-0.263253 -3.40711,-0.379786 -5.11936,-0.348282 z"
       id="path1"
       sodipodi:nodetypes="ccccccccc"
       inkscape:label="water" />
    <path
       style="fill:#ffffff;stroke:none;stroke-width:6.16201;stroke-linejoin:round;stroke-miterlimit:3.3;stroke-dashoffset:0.32"
       d="m 146.93727,63.419324 c -1.22161,1.468647 -1.97712,3.320252 -2.97291,4.9585 -0.76913,1.266952 -1.35253,2.720681 -2.23393,3.873651 -3.49868,1.68945 -6.96181,4.097504 -8.47466,7.827361 -1.40315,2.871239 -1.41321,6.189609 -0.89953,9.278238 1.44932,6.182948 7.27386,11.073636 13.62329,11.346416 3.92592,0.16859 7.91666,-1.20563 10.7426,-3.96747 2.88231,-2.746346 4.51402,-6.746473 4.25495,-10.734093 0.0834,-3.787704 -1.77508,-7.411003 -4.37871,-10.068693 -1.27667,-1.313773 -2.96364,-2.16552 -4.3507,-3.293939 -1.69714,-3.079476 -3.25883,-6.255586 -5.18314,-9.197456 -0.0363,-0.02608 -0.0831,-0.03594 -0.12726,-0.02252 z m 5.63871,24.092116 c 0.005,2.64e-4 0.0159,-0.0046 0,0 z m 0.97014,0 c 0.008,2.64e-4 -0.0224,-0.0042 0,0 z m -1.04095,0.01535 c 0.005,-1.67e-4 0.0189,-0.0058 0,0 z m 1.10915,-7.94e-4 c 0.0138,0.0029 -0.0178,-0.005 0,0 z m -1.17376,0.01958 c 0.005,-5.29e-4 0.0238,-0.0091 0,0 z m 1.23608,-0.0016 c 0.0202,0.0062 -0.018,-0.0066 0,0 z m -1.35159,0.05254 c 0.004,-7.94e-4 0.0214,-0.01225 0,0 z m 1.46678,-0.0029 c 0.0204,0.01024 -0.0134,-0.0076 0,0 z m -2.08254,0.62946 c 0.003,-0.0029 0.008,-0.01357 0,0 z m -0.26464,1.024953 c 5.3e-4,-0.0037 -0.002,-0.01455 0,0 z m 3.23117,0.130853 c -0.002,0.01103 0.003,-0.01344 0,0 z m -2.86276,0.746609 c -7.9e-4,-0.0028 -0.0113,-0.01204 0,0 z m 1.54967,0.603356 c -0.0123,0.0029 0.01,-0.0016 0,0 z m -0.19677,0.02577 c 0.0134,1.9e-5 0.003,-7.94e-4 0,0 z"
       id="path2"
       inkscape:label="fish_body"
       sodipodi:nodetypes="sccccccccccsscccccccccccccccccccccccccccc" />
    <circle
       style="fill:#18207d;fill-opacity:1;stroke-width:6.16199;stroke-linejoin:round;stroke-miterlimit:3.3;stroke-dashoffset:0.32"
       id="path4"
       cx="153.08864"
       cy="89.09008"
       r="1.7464216"
       inkscape:label="fish_eye_1" />
    <circle
       style="fill:#18207d;fill-opacity:1;stroke-width:6.16199;stroke-linejoin:round;stroke-miterlimit:3.3;stroke-dashoffset:0.32"
       id="circle5"
       cx="141.04666"
       cy="89.09008"
       r="1.7464216"
       inkscape:label="fish_eye_2" />
  </g>
</svg>
